<svg width="25" height="25" viewBox="0 0 25 25" fill="none" xmlns="http://www.w3.org/2000/svg">
<path d="M14.1597 12.1906L18.4597 7.90062C18.648 7.71231 18.7538 7.45692 18.7538 7.19062C18.7538 6.92431 18.648 6.66892 18.4597 6.48062C18.2714 6.29231 18.016 6.18652 17.7497 6.18652C17.4834 6.18652 17.228 6.29231 17.0397 6.48062L12.7497 10.7806L8.45969 6.48062C8.27139 6.29231 8.016 6.18652 7.74969 6.18652C7.48339 6.18652 7.228 6.29231 7.03969 6.48062C6.85139 6.66892 6.7456 6.92431 6.7456 7.19062C6.7456 7.45692 6.85139 7.71231 7.03969 7.90062L11.3397 12.1906L7.03969 16.4806C6.94597 16.5736 6.87157 16.6842 6.8208 16.806C6.77003 16.9279 6.7439 17.0586 6.7439 17.1906C6.7439 17.3226 6.77003 17.4533 6.8208 17.5752C6.87157 17.6971 6.94597 17.8077 7.03969 17.9006C7.13266 17.9943 7.24326 18.0687 7.36512 18.1195C7.48698 18.1703 7.61768 18.1964 7.74969 18.1964C7.88171 18.1964 8.01241 18.1703 8.13427 18.1195C8.25613 18.0687 8.36673 17.9943 8.45969 17.9006L12.7497 13.6006L17.0397 17.9006C17.1327 17.9943 17.2433 18.0687 17.3651 18.1195C17.487 18.1703 17.6177 18.1964 17.7497 18.1964C17.8817 18.1964 18.0124 18.1703 18.1343 18.1195C18.2561 18.0687 18.3667 17.9943 18.4597 17.9006C18.5534 17.8077 18.6278 17.6971 18.6786 17.5752C18.7294 17.4533 18.7555 17.3226 18.7555 17.1906C18.7555 17.0586 18.7294 16.9279 18.6786 16.806C18.6278 16.6842 18.5534 16.5736 18.4597 16.4806L14.1597 12.1906Z" fill="#2E2C33"/>
</svg>
